<svg class="prefix__icon" viewBox="0 0 1024 1024" xmlns="http://www.w3.org/2000/svg" width="200" height="200"><path d="M824.422 399.872A158.208 158.208 0 11983.04 241.766a158.31 158.31 0 01-158.618 158.106zm0-234.394a76.288 76.288 0 1076.698 76.288 76.288 76.288 0 00-76.698-76.288z" fill="#3080E9"/><path d="M629.248 823.194H323.072v-81.92h306.176a94.208 94.208 0 100-188.314H372.122a176.128 176.128 0 010-352.154H688.64v81.92H372.122a94.208 94.208 0 000 188.314h257.126a176.128 176.128 0 110 352.154z" fill="#3080E9"/><path d="M199.066 940.34a158.106 158.106 0 11158.208-158.106 158.31 158.31 0 01-158.208 158.105zm0-234.292a76.186 76.186 0 1076.288 76.186 76.288 76.288 0 00-76.288-75.674z" fill="#3080E9"/></svg>