<svg xmlns="http://www.w3.org/2000/svg" width="24" height="24" viewBox="0 0 24 24"><defs><style>.a{fill:#ff3226;}</style></defs><path class="a" d="M44,32A12,12,0,1,1,32,44,12,12,0,0,1,44,32Zm3.107,5.281a1.589,1.589,0,0,0-2.179-.06l-.019.017-6.8,6.781a1.578,1.578,0,0,0-.509,1.144v4.065a.791.791,0,0,0,.78.79h.013l4.784-.012A1.589,1.589,0,0,0,44.24,49.6l.013-.012,6.438-6.414.046-.044a1.576,1.576,0,0,0,.012-2.222l-.012-.012-3.628-3.614ZM43.2,41.2,46.792,44.8l-3.621,3.608-3.971.01V45.189l.009-.008.015-.014.015-.015Zm2.789-2.781,3.6,3.588-.014.013-.015.015-1.636,1.629-3.594-3.594Z" transform="translate(-32 -32)"/></svg>